<svg width="78" height="82" viewBox="0 0 78 82" fill="none" xmlns="http://www.w3.org/2000/svg">
<g filter="url(#filter0_d_732_23976)">
<path d="M30.4397 69.8184C27.8829 69.6376 24.9174 68.3294 22.8862 66.9753C19.4568 64.689 16.7993 60.3172 15.2705 56.4953C13.5579 52.2137 12.979 46.902 13.8838 42.378C14.7314 38.14 16.9642 34.7396 18.851 30.966C20.4661 27.7359 23.6725 24.5885 26.3985 22.2819C27.3723 21.4579 28.4333 20.0002 29.638 19.554C30.8861 19.0917 32.0932 18.5777 33.3777 18.2923C34.2431 18.1 35.3419 18.1808 36.1398 17.8262C38.0003 16.9994 40.1206 16.63 42.1755 16.951C45.4492 17.4625 48.8345 18.6954 51.6894 20.2814C52.6189 20.7978 53.8411 21.6845 54.4629 22.5888C55.3483 23.8767 57.0074 24.9376 57.5773 26.4194C58.187 28.0046 59.3818 29.2768 59.6574 31.0683C59.9195 32.7718 60.327 34.5237 60.6463 36.2401C60.8461 37.3137 60.4872 38.4505 60.4872 39.5364C60.4872 40.5849 60.2567 41.8211 59.9757 42.8327C59.7218 43.7469 59.7041 45.0399 59.6688 45.9926C59.6237 47.2108 59.2931 48.3785 59.2596 49.5844C59.2085 51.4249 58.182 53.1426 57.8274 54.9153C57.4467 56.819 56.2594 59.0972 55.2699 60.7464C53.6267 63.485 51.3534 66.7953 48.1089 67.7937C45.4794 68.6027 43.0439 69.9514 40.3454 70.4421C38.4725 70.7826 36.2001 70.4534 34.4007 70.4534C33.5548 70.4534 32.7794 70.0954 32.0478 69.7942C31.7171 69.658 31.43 69.635 31.0248 69.635C30.7323 69.635 30.5726 69.7038 30.4966 69.7586C30.4778 69.7916 30.4622 69.8106 30.452 69.8193C30.4419 69.8279 30.4371 69.8264 30.4397 69.8184Z" fill="#DDB448"/>
<path d="M30.4397 69.8184C27.8829 69.6376 24.9174 68.3294 22.8862 66.9753C19.4568 64.689 16.7993 60.3172 15.2705 56.4953C13.5579 52.2137 12.979 46.902 13.8838 42.378C14.7314 38.14 16.9642 34.7396 18.851 30.966C20.4661 27.7359 23.6725 24.5885 26.3985 22.2819C27.3723 21.4579 28.4333 20.0002 29.638 19.554C30.8861 19.0917 32.0932 18.5777 33.3777 18.2923C34.2431 18.1 35.3419 18.1808 36.1398 17.8262C38.0003 16.9994 40.1206 16.63 42.1755 16.951C45.4492 17.4625 48.8345 18.6954 51.6894 20.2814C52.6189 20.7978 53.8411 21.6845 54.4629 22.5888C55.3483 23.8767 57.0074 24.9376 57.5773 26.4194C58.187 28.0046 59.3818 29.2768 59.6574 31.0683C59.9195 32.7718 60.327 34.5237 60.6463 36.2401C60.8461 37.3137 60.4872 38.4505 60.4872 39.5364C60.4872 40.5849 60.2567 41.8211 59.9757 42.8327C59.7218 43.7469 59.7041 45.0399 59.6688 45.9926C59.6237 47.2108 59.2931 48.3785 59.2596 49.5844C59.2085 51.4249 58.182 53.1426 57.8274 54.9153C57.4467 56.819 56.2594 59.0972 55.2699 60.7464C53.6267 63.485 51.3534 66.7953 48.1089 67.7937C45.4794 68.6027 43.0439 69.9514 40.3454 70.4421C38.4725 70.7826 36.2001 70.4534 34.4007 70.4534C33.5548 70.4534 32.7794 70.0954 32.0478 69.7942C31.7171 69.658 31.43 69.635 31.0248 69.635C30.7323 69.635 30.5726 69.7038 30.4966 69.7586C30.4778 69.7916 30.4622 69.8106 30.452 69.8193C30.4419 69.8279 30.4371 69.8264 30.4397 69.8184Z" fill="#FDF9F5" fill-opacity="0.48"/>
</g>
<path d="M13.7257 46.8898C12.4725 46.763 13.4191 41.5429 13.5691 40.7984C13.8665 39.3215 14.612 37.9155 14.9342 36.4488C15.1368 35.5265 15.6794 34.5584 16.042 33.6782C16.4636 32.6545 16.7854 31.54 17.4407 30.6121C18.4099 29.2395 19.5815 27.9944 20.5737 26.6394C21.5966 25.2426 22.4726 23.8921 23.7963 22.6871C24.8545 21.7238 25.5026 20.1429 26.9182 19.5701C27.5679 19.3073 28.0349 18.7041 28.7421 18.47C29.529 18.2095 30.2362 17.9068 31.0471 17.6959C32.6461 17.28 33.8432 16.4531 35.5788 16.4531C36.8016 16.4531 38.3985 16.4847 39.5064 16.9624C41.5633 17.8494 43.3191 18.7787 45.3473 19.7942C50.1914 22.2196 54.822 24.1832 58.439 28.2285C59.722 29.6635 59.6931 31.1148 59.8601 32.8633C59.9543 33.8497 60.2517 34.7752 60.2517 35.7765C60.2517 36.8625 60.0445 38.1283 60.2965 39.189C60.6768 40.7905 60.4531 42.5899 60.4531 44.2312C60.4531 46.0782 59.9407 47.6597 59.6587 49.4567C59.1894 52.4468 57.8233 55.2859 55.7199 57.6262C55.26 58.1379 54.9927 58.9459 54.7017 59.5514C54.2989 60.3894 53.5594 61.3824 52.9561 62.1081C51.5059 63.8527 49.5343 65.4159 47.753 66.8753C46.5038 67.8988 44.6324 68.3304 43.087 68.8515C41.413 69.4159 39.7705 69.4423 37.9958 69.4423C36.7301 69.4423 34.842 69.7506 33.6654 69.2997C32.8893 69.0022 32.0313 68.8631 31.2485 68.5255C30.7623 68.3158 30.2526 68.1196 29.7379 67.9754C29.3004 67.8529 28.6866 67.3831 28.2945 67.3643C26.8277 67.294 25.8865 67.3174 24.6019 66.7327C23.5378 66.2483 23.0082 65.2274 22.0843 64.5732C21.1275 63.8957 20.2861 63.0816 19.7233 62.1081C19.1787 61.1661 18.6897 60.0263 17.8547 59.2662C17.3962 58.8488 17.0678 58.2582 16.6462 57.7891C16.2636 57.3634 15.6716 56.8991 15.3818 56.4242C14.7608 55.4067 14.1286 54.2396 14.1286 53.0321C14.1286 51.8763 13.9951 50.7534 13.9271 49.6401C13.8703 48.7079 14.2069 48.1326 13.7257 47.2565" stroke="#154193" stroke-width="1.24999" stroke-linecap="round"/>
<path d="M19.9695 18.289C20.326 18.2426 15.0818 10.4375 16.9484 9.30469" stroke="#154193" stroke-width="1.24999" stroke-linecap="round"/>
<path d="M41.3192 7.83836C41.0632 7.83836 42.1232 6.00786 42.1248 6.00483C42.9055 4.57666 43.7389 3.1766 44.5865 1.7877C44.7613 1.50128 45.2082 0.80084 45.3474 1.05428" stroke="#154193" stroke-width="1.24999" stroke-linecap="round"/>
<path d="M59.2446 18.6566C59.466 17.6489 61.0317 16.3831 61.6616 15.6211C62.3196 14.825 62.9762 14.0307 63.5414 13.1763C63.6934 12.9466 63.816 12.6179 64.0785 12.4633C64.6725 12.1134 64.1796 12.6035 64.0785 13.156" stroke="#154193" stroke-width="1.24999" stroke-linecap="round"/>
<path d="M66.696 33.3253C66.4132 33.3253 67.0551 33.2512 67.1324 33.2336C69.5165 32.691 71.9622 31.8614 74.3832 31.5223C74.8859 31.4519 76.5652 30.9578 76.5652 31.6751" stroke="#154193" stroke-width="1.24999" stroke-linecap="round"/>
<path d="M68.3081 46.1571C68.3426 45.9376 68.9676 46.2913 69.1137 46.3405C70.3601 46.7598 72.1172 46.8906 73.4553 46.8906C73.814 46.8906 75.2114 46.7899 75.3575 46.5239" stroke="#154193" stroke-width="1.24999" stroke-linecap="round"/>
<path d="M63.2717 53.3122C63.2318 53.0217 63.208 53.2542 63.4955 53.516C64.8406 54.7404 66.0368 56.2687 67.658 57.2034C68.7758 57.8478 69.1935 58.75 70.1197 59.5463C70.5945 59.9544 72.3845 60.9195 72.3352 60.8297" stroke="#154193" stroke-width="1.24999" stroke-linecap="round"/>
<path d="M50.5835 69.2617C50.6735 70.7369 52.1948 71.9776 52.1948 73.4788" stroke="#154193" stroke-width="1.24999" stroke-linecap="round"/>
<path d="M24.1992 73.2969C23.8542 73.6502 23.6463 74.4432 23.4607 74.8656C22.8243 76.3138 22.1186 77.8645 21.1668 79.1642C20.9159 79.5068 20.5262 79.9809 20.3724 80.3662C20.2005 80.7963 20.1616 81.3984 20.3724 80.631" stroke="#154193" stroke-width="1.24999" stroke-linecap="round"/>
<path d="M14.5306 64.312C14.4975 64.0709 8.8832 65.3905 9.29395 66.5123" stroke="#154193" stroke-width="1.24999" stroke-linecap="round"/>
<path d="M24.6011 34.7915C24.2761 34.7915 24.0555 34.7706 23.8402 35.0156C23.4223 35.4911 24.6543 35.81 24.713 35.6675C24.7485 35.5813 24.0914 34.9223 24.4221 35.4434C24.4221 35.5581 24.7003 35.5365 24.7578 35.4841C24.9922 35.2708 24.4503 35.0209 25.0039 35.5249" stroke="#154193" stroke-width="1.24999" stroke-linecap="round"/>
<path d="M31.0456 30.9403C30.8484 30.9403 30.4414 30.856 30.4414 31.1237C30.4414 31.2058 30.6719 31.7657 30.7995 31.633C31.048 31.3744 30.3069 31.3884 30.8442 31.633C31.2741 31.8287 30.7413 31.1832 30.889 31.4904C31.0014 31.7243 31.3572 31.9945 31.2023 31.5311C31.0527 31.0835 31.0015 31.856 31.2023 31.4904C31.3834 31.1607 30.9554 31.5095 31.2471 32.0404" stroke="#154193" stroke-width="1.24999" stroke-linecap="round"/>
<path d="M20.5737 44.1448C23.1901 46.262 26.535 48.0298 29.9393 48.7185C31.3898 49.0119 33.3382 47.7253 34.7732 47.435C36.2516 47.1359 37.7662 46.2116 39.1036 45.5709C42.287 44.0456 44.9103 41.4021 46.8579 38.6442C47.7465 37.3859 48.8099 36.1283 49.3755 34.7123C49.6335 34.0663 50.5466 31.293 49.7783 30.9434" stroke="#154193" stroke-width="1.24999" stroke-linecap="round"/>
<path d="M47.9648 28.5586C48.4223 28.6107 49.081 29.8277 49.4754 30.1069C49.8982 30.4063 50.5617 30.5231 50.9413 30.7996C51.391 31.1271 53.155 31.0269 53.4029 30.5755" stroke="#154193" stroke-width="1.24999" stroke-linecap="round"/>
<path d="M21.9833 41.7588C21.7949 41.6088 21.5814 42.6526 21.4686 42.9608C21.2825 43.4691 20.8074 43.9714 20.4168 44.3665C20.0109 44.777 19.8374 45.0444 19.2643 45.3342C18.8242 45.5568 18.3579 45.3536 18.3579 45.9759" stroke="#154193" stroke-width="1.24999" stroke-linecap="round"/>
<path d="M9.40062 33.9951C9.66624 34.2715 9.42205 34.2569 9.12714 34.2441C7.17012 34.1592 4.95793 32.5812 3.3234 31.7545C2.61104 31.3942 0.648076 31.0579 1.25714 30.5651C1.5565 30.3228 1.86165 30.6175 2.0168 30.7587" stroke="#154193" stroke-width="1.24999" stroke-linecap="round"/>
<path d="M6.11904 47.1895C6.36835 47.4488 1.20298 48.1735 1.46997 47.6874" stroke="#154193" stroke-width="1.24999" stroke-linecap="round"/>
<defs>
<filter id="filter0_d_732_23976" x="13.4595" y="16.8359" width="49.2475" height="55.7598" filterUnits="userSpaceOnUse" color-interpolation-filters="sRGB">
<feFlood flood-opacity="0" result="BackgroundImageFix"/>
<feColorMatrix in="SourceAlpha" type="matrix" values="0 0 0 0 0 0 0 0 0 0 0 0 0 0 0 0 0 0 127 0" result="hardAlpha"/>
<feOffset dx="0.999993" dy="0.999993"/>
<feGaussianBlur stdDeviation="0.499996"/>
<feComposite in2="hardAlpha" operator="out"/>
<feColorMatrix type="matrix" values="0 0 0 0 0 0 0 0 0 0 0 0 0 0 0 0 0 0 0.7 0"/>
<feBlend mode="normal" in2="BackgroundImageFix" result="effect1_dropShadow_732_23976"/>
<feBlend mode="normal" in="SourceGraphic" in2="effect1_dropShadow_732_23976" result="shape"/>
</filter>
</defs>
</svg>
