<svg width="1537" height="40" viewBox="0 0 1537 40" fill="none" xmlns="http://www.w3.org/2000/svg">
<g filter="url(#filter0_d_732_24372)">
<path d="M525.453 15.519C526.278 20.3014 532.075 29.8663 548.661 29.8663C565.246 29.8664 571.662 20.3014 572.796 15.519C573.003 21.8278 579.047 34.4453 601.574 34.4453C624.1 34.4453 632.414 15.112 633.755 5.44532C635.921 12.4664 645.575 26.5085 666.864 26.5085C688.153 26.5085 695.125 12.4664 695.95 5.44533C696.879 14.0944 706.038 31.3927 735.248 31.3927C764.459 31.3927 771.555 14.0945 771.452 5.44533" stroke="#FDF9F5" stroke-width="2" stroke-linecap="round" stroke-linejoin="round"/>
<path d="M281.453 15.519C282.278 20.3014 288.075 29.8663 304.661 29.8663C321.246 29.8664 327.662 20.3014 328.796 15.519C329.003 21.8278 335.047 34.4453 357.574 34.4453C380.1 34.4453 388.414 15.112 389.755 5.44532C391.921 12.4664 401.575 26.5085 422.864 26.5085C444.153 26.5085 451.125 12.4664 451.95 5.44533C452.879 14.0944 462.038 31.3927 491.248 31.3927C520.459 31.3927 527.555 14.0945 527.452 5.44533" stroke="#FDF9F5" stroke-width="2" stroke-linecap="round" stroke-linejoin="round"/>
<path d="M38.4531 15.519C39.2783 20.3014 45.075 29.8663 61.6606 29.8663C78.2461 29.8664 84.6617 20.3014 85.7963 15.519C86.0026 21.8278 92.0468 34.4453 114.574 34.4453C137.1 34.4453 145.414 15.112 146.755 5.44532C148.921 12.4664 158.575 26.5085 179.864 26.5085C201.153 26.5085 208.125 12.4664 208.95 5.44533C209.879 14.0944 219.038 31.3927 248.248 31.3927C277.459 31.3927 284.555 14.0945 284.452 5.44533" stroke="#FDF9F5" stroke-width="2" stroke-linecap="round" stroke-linejoin="round"/>
<path d="M-205.547 15.519C-204.722 20.3014 -198.925 29.8663 -182.339 29.8663C-165.754 29.8664 -159.338 20.3014 -158.204 15.519C-157.997 21.8278 -151.953 34.4453 -129.426 34.4453C-106.9 34.4453 -98.5864 15.112 -97.2455 5.44532C-95.0795 12.4664 -85.4252 26.5085 -64.1362 26.5085C-42.8472 26.5085 -35.8747 12.4664 -35.0495 5.44533C-34.1212 14.0944 -24.962 31.3927 4.24841 31.3927C33.4588 31.3927 40.5552 14.0945 40.452 5.44533" stroke="#FDF9F5" stroke-width="2" stroke-linecap="round" stroke-linejoin="round"/>
<path d="M1500.45 15.519C1501.28 20.3014 1507.07 29.8663 1523.66 29.8663C1540.25 29.8664 1546.66 20.3014 1547.8 15.519C1548 21.8278 1554.05 34.4453 1576.57 34.4453C1599.1 34.4453 1607.41 15.112 1608.75 5.44532C1610.92 12.4664 1620.57 26.5085 1641.86 26.5085C1663.15 26.5085 1670.13 12.4664 1670.95 5.44533C1671.88 14.0944 1681.04 31.3927 1710.25 31.3927C1739.46 31.3927 1746.56 14.0945 1746.45 5.44533" stroke="#FDF9F5" stroke-width="2" stroke-linecap="round" stroke-linejoin="round"/>
<path d="M1256.45 15.519C1257.28 20.3014 1263.07 29.8663 1279.66 29.8663C1296.25 29.8664 1302.66 20.3014 1303.8 15.519C1304 21.8278 1310.05 34.4453 1332.57 34.4453C1355.1 34.4453 1363.41 15.112 1364.75 5.44532C1366.92 12.4664 1376.57 26.5085 1397.86 26.5085C1419.15 26.5085 1426.13 12.4664 1426.95 5.44533C1427.88 14.0944 1437.04 31.3927 1466.25 31.3927C1495.46 31.3927 1502.56 14.0945 1502.45 5.44533" stroke="#FDF9F5" stroke-width="2" stroke-linecap="round" stroke-linejoin="round"/>
<path d="M1013.45 15.519C1014.28 20.3014 1020.07 29.8663 1036.66 29.8663C1053.25 29.8664 1059.66 20.3014 1060.8 15.519C1061 21.8278 1067.05 34.4453 1089.57 34.4453C1112.1 34.4453 1120.41 15.112 1121.75 5.44532C1123.92 12.4664 1133.57 26.5085 1154.86 26.5085C1176.15 26.5085 1183.13 12.4664 1183.95 5.44533C1184.88 14.0944 1194.04 31.3927 1223.25 31.3927C1252.46 31.3927 1259.56 14.0945 1259.45 5.44533" stroke="#FDF9F5" stroke-width="2" stroke-linecap="round" stroke-linejoin="round"/>
<path d="M769.453 15.519C770.278 20.3014 776.075 29.8663 792.661 29.8663C809.246 29.8664 815.662 20.3014 816.796 15.519C817.003 21.8278 823.047 34.4453 845.574 34.4453C868.1 34.4453 876.414 15.112 877.755 5.44532C879.921 12.4664 889.575 26.5085 910.864 26.5085C932.153 26.5085 939.125 12.4664 939.95 5.44533C940.879 14.0944 950.038 31.3927 979.248 31.3927C1008.46 31.3927 1015.56 14.0945 1015.45 5.44533" stroke="#FDF9F5" stroke-width="2" stroke-linecap="round" stroke-linejoin="round"/>
<path d="M1371.45 16.4453L1380.45 22.9453L1383.95 0.445312H1016.45C1015.95 3.27865 1014.95 9.04531 1014.95 9.44531C1014.95 9.84531 1013.62 13.612 1012.95 15.4453L1015.45 20.9453L1023.95 27.9453L1035.95 29.9453L1045.95 28.9453L1054.95 23.9453L1060.45 17.9453L1066.45 27.9453L1076.95 32.9453L1090.45 34.9453L1099.95 32.9453L1107.95 28.9453L1112.95 24.9453L1117.45 17.9453L1119.95 11.9453L1121.95 6.94531L1129.95 17.9453L1139.45 23.9453L1153.95 26.9453L1166.95 24.9453L1177.95 17.9453L1183.95 8.44531L1193.95 22.4453L1212.45 31.4453H1229.45L1241.45 28.4453L1251.45 22.4453L1256.45 17.9453L1264.95 26.4453L1275.95 29.9453L1288.45 28.9453L1295.45 25.9453L1299.95 22.4453L1303.45 16.9453L1307.95 25.9453L1312.95 29.9453L1323.45 33.9453L1333.45 34.4453L1342.95 33.4453L1349.95 29.9453L1357.45 22.9453L1362.95 11.9453L1364.45 5.44531L1371.45 16.4453Z" fill="#FDF9F5"/>
<path d="M1126.95 16.4453L1135.95 22.9453L1139.45 0.445312H771.953C771.453 3.27865 770.453 9.04531 770.453 9.44531C770.453 9.84531 769.12 13.612 768.453 15.4453L770.953 20.9453L779.453 27.9453L791.453 29.9453L801.453 28.9453L810.453 23.9453L815.953 17.9453L821.953 27.9453L832.453 32.9453L845.953 34.9453L855.453 32.9453L863.453 28.9453L868.453 24.9453L872.953 17.9453L875.453 11.9453L877.453 6.94531L885.453 17.9453L894.953 23.9453L909.453 26.9453L922.453 24.9453L933.453 17.9453L939.453 8.44531L949.453 22.4453L967.953 31.4453H984.953L996.953 28.4453L1006.95 22.4453L1011.95 17.9453L1020.45 26.4453L1031.45 29.9453L1043.95 28.9453L1050.95 25.9453L1055.45 22.4453L1058.95 16.9453L1063.45 25.9453L1068.45 29.9453L1078.95 33.9453L1088.95 34.4453L1098.45 33.4453L1105.45 29.9453L1112.95 22.9453L1118.45 11.9453L1119.95 5.44531L1126.95 16.4453Z" fill="#FDF9F5"/>
<path d="M882.953 16.4453L891.953 22.9453L895.453 0.445312H527.953C527.453 3.27865 526.453 9.04531 526.453 9.44531C526.453 9.84531 525.12 13.612 524.453 15.4453L526.953 20.9453L535.453 27.9453L547.453 29.9453L557.453 28.9453L566.453 23.9453L571.953 17.9453L577.953 27.9453L588.453 32.9453L601.953 34.9453L611.453 32.9453L619.453 28.9453L624.453 24.9453L628.953 17.9453L631.453 11.9453L633.453 6.94531L641.453 17.9453L650.953 23.9453L665.453 26.9453L678.453 24.9453L689.453 17.9453L695.453 8.44531L705.453 22.4453L723.953 31.4453H740.953L752.953 28.4453L762.953 22.4453L767.953 17.9453L776.453 26.4453L787.453 29.9453L799.953 28.9453L806.953 25.9453L811.453 22.4453L814.953 16.9453L819.453 25.9453L824.453 29.9453L834.953 33.9453L844.953 34.4453L854.453 33.4453L861.453 29.9453L868.953 22.9453L874.453 11.9453L875.953 5.44531L882.953 16.4453Z" fill="#FDF9F5"/>
<path d="M638.953 16.4453L647.953 22.9453L651.453 0.445312H283.953C283.453 3.27865 282.453 9.04531 282.453 9.44531C282.453 9.84531 281.12 13.612 280.453 15.4453L282.953 20.9453L291.453 27.9453L303.453 29.9453L313.453 28.9453L322.453 23.9453L327.953 17.9453L333.953 27.9453L344.453 32.9453L357.953 34.9453L367.453 32.9453L375.453 28.9453L380.453 24.9453L384.953 17.9453L387.453 11.9453L389.453 6.94531L397.453 17.9453L406.953 23.9453L421.453 26.9453L434.453 24.9453L445.453 17.9453L451.453 8.44531L461.453 22.4453L479.953 31.4453H496.953L508.953 28.4453L518.953 22.4453L523.953 17.9453L532.453 26.4453L543.453 29.9453L555.953 28.9453L562.953 25.9453L567.453 22.4453L570.953 16.9453L575.453 25.9453L580.453 29.9453L590.953 33.9453L600.953 34.4453L610.453 33.4453L617.453 29.9453L624.953 22.9453L630.453 11.9453L631.953 5.44531L638.953 16.4453Z" fill="#FDF9F5"/>
<path d="M395.953 16.4453L404.953 22.9453L408.453 0.445312H40.9531C40.4531 3.27865 39.4531 9.04531 39.4531 9.44531C39.4531 9.84531 38.1198 13.612 37.4531 15.4453L39.9531 20.9453L48.4531 27.9453L60.4531 29.9453L70.4531 28.9453L79.4531 23.9453L84.9531 17.9453L90.9531 27.9453L101.453 32.9453L114.953 34.9453L124.453 32.9453L132.453 28.9453L137.453 24.9453L141.953 17.9453L144.453 11.9453L146.453 6.94531L154.453 17.9453L163.953 23.9453L178.453 26.9453L191.453 24.9453L202.453 17.9453L208.453 8.44531L218.453 22.4453L236.953 31.4453H253.953L265.953 28.4453L275.953 22.4453L280.953 17.9453L289.453 26.4453L300.453 29.9453L312.953 28.9453L319.953 25.9453L324.453 22.4453L327.953 16.9453L332.453 25.9453L337.453 29.9453L347.953 33.9453L357.953 34.4453L367.453 33.4453L374.453 29.9453L381.953 22.9453L387.453 11.9453L388.953 5.44531L395.953 16.4453Z" fill="#FDF9F5"/>
<path d="M151.953 16.4453L160.953 22.9453L164.453 0.445312H-203.047C-203.547 3.27865 -204.547 9.04531 -204.547 9.44531C-204.547 9.84531 -205.88 13.612 -206.547 15.4453L-204.047 20.9453L-195.547 27.9453L-183.547 29.9453L-173.547 28.9453L-164.547 23.9453L-159.047 17.9453L-153.047 27.9453L-142.547 32.9453L-129.047 34.9453L-119.547 32.9453L-111.547 28.9453L-106.547 24.9453L-102.047 17.9453L-99.5469 11.9453L-97.5469 6.94531L-89.5469 17.9453L-80.0469 23.9453L-65.5469 26.9453L-52.5469 24.9453L-41.5469 17.9453L-35.5469 8.44531L-25.5469 22.4453L-7.04688 31.4453H9.95312L21.9531 28.4453L31.9531 22.4453L36.9531 17.9453L45.4531 26.4453L56.4531 29.9453L68.9531 28.9453L75.9531 25.9453L80.4531 22.4453L83.9531 16.9453L88.4531 25.9453L93.4531 29.9453L103.953 33.9453L113.953 34.4453L123.453 33.4453L130.453 29.9453L137.953 22.9453L143.453 11.9453L144.953 5.44531L151.953 16.4453Z" fill="#FDF9F5"/>
</g>
<defs>
<filter id="filter0_d_732_24372" x="-207.547" y="0.445312" width="1958" height="39" filterUnits="userSpaceOnUse" color-interpolation-filters="sRGB">
<feFlood flood-opacity="0" result="BackgroundImageFix"/>
<feColorMatrix in="SourceAlpha" type="matrix" values="0 0 0 0 0 0 0 0 0 0 0 0 0 0 0 0 0 0 127 0" result="hardAlpha"/>
<feOffset dx="1" dy="2"/>
<feGaussianBlur stdDeviation="1"/>
<feComposite in2="hardAlpha" operator="out"/>
<feColorMatrix type="matrix" values="0 0 0 0 0 0 0 0 0 0 0 0 0 0 0 0 0 0 0.7 0"/>
<feBlend mode="normal" in2="BackgroundImageFix" result="effect1_dropShadow_732_24372"/>
<feBlend mode="normal" in="SourceGraphic" in2="effect1_dropShadow_732_24372" result="shape"/>
</filter>
</defs>
</svg>
